<svg width="326" height="324" viewBox="0 0 326 324" fill="none" xmlns="http://www.w3.org/2000/svg">
<g filter="url(#filter0_d)">
<circle cx="162" cy="158" r="158" fill="#181818"/>
</g>
<g filter="url(#filter1_d)">
<path d="M115 126.5C70 87.5001 29.6667 120 20.5 147C20.5 148.333 -2.50001 193.5 29 211.5C60.5 229.5 85.5 177.5 112 200C138.5 222.5 187.5 236 229.5 196.5C271.5 157 343.5 182.5 311.5 137.5C268.7 73.1001 220.667 95.0001 202 114C189.5 132.5 154.6 160.9 115 126.5Z" fill="white"/>
<path d="M115 126.5C70 87.5001 29.6667 120 20.5 147C20.5 148.333 -2.50001 193.5 29 211.5C60.5 229.5 85.5 177.5 112 200C138.5 222.5 187.5 236 229.5 196.5C271.5 157 343.5 182.5 311.5 137.5C268.7 73.1001 220.667 95.0001 202 114C189.5 132.5 154.6 160.9 115 126.5Z" stroke="white" stroke-opacity="0.38"/>
</g>
<defs>
<filter id="filter0_d" x="0" y="0" width="324" height="324" filterUnits="userSpaceOnUse" color-interpolation-filters="sRGB">
<feFlood flood-opacity="0" result="BackgroundImageFix"/>
<feColorMatrix in="SourceAlpha" type="matrix" values="0 0 0 0 0 0 0 0 0 0 0 0 0 0 0 0 0 0 127 0"/>
<feOffset dy="4"/>
<feGaussianBlur stdDeviation="2"/>
<feColorMatrix type="matrix" values="0 0 0 0 1 0 0 0 0 1 0 0 0 0 1 0 0 0 0.25 0"/>
<feBlend mode="normal" in2="BackgroundImageFix" result="effect1_dropShadow"/>
<feBlend mode="normal" in="SourceGraphic" in2="effect1_dropShadow" result="shape"/>
</filter>
<filter id="filter1_d" x="9.89783" y="91.9722" width="316.066" height="136.177" filterUnits="userSpaceOnUse" color-interpolation-filters="sRGB">
<feFlood flood-opacity="0" result="BackgroundImageFix"/>
<feColorMatrix in="SourceAlpha" type="matrix" values="0 0 0 0 0 0 0 0 0 0 0 0 0 0 0 0 0 0 127 0"/>
<feOffset dx="2" dy="2"/>
<feGaussianBlur stdDeviation="2"/>
<feColorMatrix type="matrix" values="0 0 0 0 0.833333 0 0 0 0 0.833333 0 0 0 0 0.833333 0 0 0 0.25 0"/>
<feBlend mode="normal" in2="BackgroundImageFix" result="effect1_dropShadow"/>
<feBlend mode="normal" in="SourceGraphic" in2="effect1_dropShadow" result="shape"/>
</filter>
</defs>
</svg>
